<?xml version="1.0" standalone="no"?>
<!DOCTYPE svg PUBLIC "-//W3C//DTD SVG 20010904//EN"
 "http://www.w3.org/TR/2001/REC-SVG-20010904/DTD/svg10.dtd">
<svg version="1.0" xmlns="http://www.w3.org/2000/svg"
 width="512.000000pt" height="512.000000pt" viewBox="0 0 512.000000 512.000000"
 preserveAspectRatio="xMidYMid meet">

<g transform="translate(0.000000,512.000000) scale(0.100000,-0.100000)"
fill="#000000" stroke="none">
<path d="M4437 4667 c-74 -45 -103 -127 -72 -205 48 -118 195 -145 280 -51 40
45 49 74 42 135 -13 116 -149 182 -250 121z"/>
<path d="M2959 4252 l-176 -98 236 -429 c130 -237 246 -447 259 -467 65 -105
238 -101 299 7 39 69 32 110 -58 352 -70 187 -102 255 -223 475 -77 142 -145
258 -151 257 -5 0 -89 -44 -186 -97z"/>
<path d="M591 2560 c-42 -10 -79 -37 -109 -81 -32 -45 -28 -138 7 -187 71
-100 225 -92 287 14 76 129 -39 286 -185 254z"/>
</g>
</svg>
